<svg xmlns="http://www.w3.org/2000/svg" width="92" height="92" viewBox="0 0 92 92">
  <path fill="#FFF" d="M14.062,14.062 C-3.577,31.701 -3.577,60.299 14.062,77.937 C31.7,95.575 60.299,95.576 77.937,77.937 C95.575,60.299 95.575,31.699 77.937,14.062 C60.299,-3.577 31.7,-3.576 14.062,14.062 Z M73.313,73.313 C58.252,88.374 33.749,88.373 18.688,73.312 C3.627,58.251 3.627,33.749 18.688,18.688 C33.749,3.627 58.252,3.627 73.313,18.688 C88.374,33.749 88.373,58.252 73.313,73.313 Z M29.291,24.664 L24.665,29.289 L41.375,46 L24.665,62.71 L29.29,67.334 L45.999,50.625 L62.709,67.334 L67.333,62.71 L50.625,46.001 L67.335,29.292 L62.709,24.667 L46.001,41.375 L29.291,24.664 Z"/>
</svg>
